<svg width="1367" height="1025" xmlns="http://www.w3.org/2000/svg"><g><path d="M-36,-57L-53,102L-32,44Z" fill="#fff9ec" stroke="#fff9ec"/><path d="M-36,-57L-32,44L38,-35Z" fill="#fff8ee" stroke="#fff8ee"/><path d="M-36,-57L38,-35L147,-64Z" fill="#fff4e5" stroke="#fff4e5"/><path d="M38,-35L-32,44L31,55Z" fill="#fff6e6" stroke="#fff6e6"/><path d="M38,-35L31,55L100,44Z" fill="#fff4e0" stroke="#fff4e0"/><path d="M38,-35L100,44L147,-64Z" fill="#fff1df" stroke="#fff1df"/><path d="M147,-64L100,44L188,-33Z" fill="#feeed7" stroke="#feeed7"/><path d="M147,-64L188,-33L312,-34Z" fill="#feeacd" stroke="#feeacd"/><path d="M147,-64L312,-34L367,-53Z" fill="#fee6c5" stroke="#fee6c5"/><path d="M147,-64L367,-53L702,-73Z" fill="#fed7b9" stroke="#fed7b9"/><path d="M188,-33L100,44L202,54Z" fill="#feecd0" stroke="#feecd0"/><path d="M188,-33L202,54L269,59Z" fill="#fee8c7" stroke="#fee8c7"/><path d="M188,-33L269,59L312,-34Z" fill="#fee7c7" stroke="#fee7c7"/><path d="M312,-34L269,59L337,31Z" fill="#fee1be" stroke="#fee1be"/><path d="M312,-34L337,31L367,-53Z" fill="#fedebf" stroke="#fedebf"/><path d="M367,-53L337,31L422,-48Z" fill="#fedabc" stroke="#fedabc"/><path d="M367,-53L422,-48L702,-73Z" fill="#feccb1" stroke="#feccb1"/><path d="M422,-48L337,31L462,46Z" fill="#fed6b7" stroke="#fed6b7"/><path d="M422,-48L462,46L505,14Z" fill="#fed0b3" stroke="#fed0b3"/><path d="M422,-48L505,14L541,-14Z" fill="#fecdb1" stroke="#fecdb1"/><path d="M422,-48L541,-14L603,-51Z" fill="#fec9ae" stroke="#fec9ae"/><path d="M422,-48L603,-51L702,-73Z" fill="#fcc3aa" stroke="#fcc3aa"/><path d="M541,-14L505,14L587,67Z" fill="#fec6a7" stroke="#fec6a7"/><path d="M541,-14L587,67L603,-51Z" fill="#fcc3aa" stroke="#fcc3aa"/><path d="M603,-51L587,67L687,22Z" fill="#fabca4" stroke="#fabca4"/><path d="M603,-51L687,22L702,-73Z" fill="#f8b8a4" stroke="#f8b8a4"/><path d="M702,-73L687,22L761,-27Z" fill="#f6b1a0" stroke="#f6b1a0"/><path d="M702,-73L761,-27L874,-14Z" fill="#f3aa9c" stroke="#f3aa9c"/><path d="M702,-73L874,-14L983,-49Z" fill="#eea096" stroke="#eea096"/><path d="M702,-73L983,-49L1147,-71Z" fill="#e6948e" stroke="#e6948e"/><path d="M761,-27L687,22L777,68Z" fill="#f5ae9a" stroke="#f5ae9a"/><path d="M761,-27L777,68L840,10Z" fill="#f3a897" stroke="#f3a897"/><path d="M761,-27L840,10L874,-14Z" fill="#f1a499" stroke="#f1a499"/><path d="M874,-14L840,10L935,44Z" fill="#ec9c90" stroke="#ec9c90"/><path d="M874,-14L935,44L931,-23Z" fill="#e99890" stroke="#e99890"/><path d="M874,-14L931,-23L983,-49Z" fill="#e8968f" stroke="#e8968f"/><path d="M931,-23L935,44L993,48Z" fill="#e69288" stroke="#e69288"/><path d="M931,-23L993,48L983,-49Z" fill="#e4918b" stroke="#e4918b"/><path d="M983,-49L993,48L1104,24Z" fill="#df8984" stroke="#df8984"/><path d="M983,-49L1104,24L1106,-33Z" fill="#dc8482" stroke="#dc8482"/><path d="M983,-49L1106,-33L1147,-71Z" fill="#db8281" stroke="#db8281"/><path d="M1106,-33L1104,24L1178,14Z" fill="#d6807f" stroke="#d6807f"/><path d="M1106,-33L1178,14L1147,-71Z" fill="#d58080" stroke="#d58080"/><path d="M1147,-71L1178,14L1271,-34Z" fill="#d08080" stroke="#d08080"/><path d="M1147,-71L1271,-34L1367,-69Z" fill="#ca8080" stroke="#ca8080"/><path d="M1271,-34L1178,14L1242,38Z" fill="#cd807e" stroke="#cd807e"/><path d="M1271,-34L1242,38L1344,7Z" fill="#c8807f" stroke="#c8807f"/><path d="M1271,-34L1344,7L1337,-49Z" fill="#c68080" stroke="#c68080"/><path d="M1271,-34L1337,-49L1367,-69Z" fill="#c58080" stroke="#c58080"/><path d="M1337,-49L1344,7L1367,-69Z" fill="#c38080" stroke="#c38080"/><path d="M1367,-69L1344,7L1375,25Z" fill="#c28080" stroke="#c28080"/><path d="M1367,-69L1375,25L1464,-64Z" fill="#be8080" stroke="#be8080"/><path d="M1464,-64L1375,25L1478,60Z" fill="#bb807e" stroke="#bb807e"/><path d="M1464,-64L1478,60L1502,228Z" fill="#b77e6f" stroke="#b77e6f"/><path d="M-32,44L-53,102L31,55Z" fill="#fff7e0" stroke="#fff7e0"/><path d="M31,55L-53,102L67,154Z" fill="#fff4d3" stroke="#fff4d3"/><path d="M31,55L67,154L92,151Z" fill="#fff0c9" stroke="#fff0c9"/><path d="M31,55L92,151L100,44Z" fill="#fff0cf" stroke="#fff0cf"/><path d="M100,44L92,151L192,119Z" fill="#ffecc3" stroke="#ffecc3"/><path d="M100,44L192,119L202,54Z" fill="#feebc4" stroke="#feebc4"/><path d="M202,54L192,119L269,59Z" fill="#fee7bb" stroke="#fee7bb"/><path d="M269,59L192,119L314,132Z" fill="#fee4b0" stroke="#fee4b0"/><path d="M269,59L314,132L334,85Z" fill="#fee0ad" stroke="#fee0ad"/><path d="M269,59L334,85L337,31Z" fill="#fee0b4" stroke="#fee0b4"/><path d="M337,31L334,85L462,46Z" fill="#fed8af" stroke="#fed8af"/><path d="M462,46L334,85L426,126Z" fill="#fed4a6" stroke="#fed4a6"/><path d="M462,46L426,126L526,153Z" fill="#fecc9b" stroke="#fecc9b"/><path d="M462,46L526,153L587,67Z" fill="#fec69b" stroke="#fec69b"/><path d="M462,46L587,67L505,14Z" fill="#fec9a5" stroke="#fec9a5"/><path d="M587,67L526,153L582,122Z" fill="#fdc191" stroke="#fdc191"/><path d="M587,67L582,122L714,145Z" fill="#fab98e" stroke="#fab98e"/><path d="M587,67L714,145L687,22Z" fill="#f8b693" stroke="#f8b693"/><path d="M687,22L714,145L777,68Z" fill="#f6ae8e" stroke="#f6ae8e"/><path d="M777,68L714,145L772,132Z" fill="#f4a984" stroke="#f4a984"/><path d="M777,68L772,132L868,94Z" fill="#f2a484" stroke="#f2a484"/><path d="M777,68L868,94L840,10Z" fill="#f1a28c" stroke="#f1a28c"/><path d="M840,10L868,94L935,44Z" fill="#ec9b89" stroke="#ec9b89"/><path d="M935,44L868,94L897,94Z" fill="#ea9781" stroke="#ea9781"/><path d="M935,44L897,94L993,48Z" fill="#e79280" stroke="#e79280"/><path d="M993,48L897,94L1010,154Z" fill="#e48e76" stroke="#e48e76"/><path d="M993,48L1010,154L1109,123Z" fill="#de846d" stroke="#de846d"/><path d="M993,48L1109,123L1104,24Z" fill="#db8174" stroke="#db8174"/><path d="M1104,24L1109,123L1178,14Z" fill="#d67e74" stroke="#d67e74"/><path d="M1178,14L1109,123L1236,93Z" fill="#d27e6f" stroke="#d27e6f"/><path d="M1178,14L1236,93L1242,38Z" fill="#ce7e75" stroke="#ce7e75"/><path d="M1242,38L1236,93L1344,7Z" fill="#c97e76" stroke="#c97e76"/><path d="M1344,7L1236,93L1378,109Z" fill="#c57e70" stroke="#c57e70"/><path d="M1344,7L1378,109L1375,25Z" fill="#c17e75" stroke="#c17e75"/><path d="M1375,25L1378,109L1456,99Z" fill="#be7d6f" stroke="#be7d6f"/><path d="M1375,25L1456,99L1478,60Z" fill="#bb7e72" stroke="#bb7e72"/><path d="M1478,60L1456,99L1502,228Z" fill="#b77c63" stroke="#b77c63"/><path d="M-53,102L-74,487L-53,303Z" fill="#ffe5ba" stroke="#ffe5ba"/><path d="M-53,102L-53,303L-18,212Z" fill="#fff4c5" stroke="#fff4c5"/><path d="M-53,102L-18,212L5,206Z" fill="#fff4c9" stroke="#fff4c9"/><path d="M-53,102L5,206L67,154Z" fill="#fff3c9" stroke="#fff3c9"/><path d="M67,154L5,206L34,273Z" fill="#ffeeb9" stroke="#ffeeb9"/><path d="M67,154L34,273L143,180Z" fill="#ffecb3" stroke="#ffecb3"/><path d="M67,154L143,180L92,151Z" fill="#ffedba" stroke="#ffedba"/><path d="M92,151L143,180L192,119Z" fill="#feeab6" stroke="#feeab6"/><path d="M192,119L143,180L179,170Z" fill="#fee8b1" stroke="#fee8b1"/><path d="M192,119L179,170L314,132Z" fill="#fee5ac" stroke="#fee5ac"/><path d="M314,132L179,170L252,233Z" fill="#fee2a1" stroke="#fee2a1"/><path d="M314,132L252,233L372,209Z" fill="#fedc97" stroke="#fedc97"/><path d="M314,132L372,209L426,126Z" fill="#fed69a" stroke="#fed69a"/><path d="M314,132L426,126L334,85Z" fill="#fed9a4" stroke="#fed9a4"/><path d="M426,126L372,209L452,194Z" fill="#fed091" stroke="#fed091"/><path d="M426,126L452,194L491,191Z" fill="#fecc8e" stroke="#fecc8e"/><path d="M426,126L491,191L526,153Z" fill="#fec98f" stroke="#fec98f"/><path d="M526,153L491,191L570,195Z" fill="#fec386" stroke="#fec386"/><path d="M526,153L570,195L582,122Z" fill="#fdc088" stroke="#fdc088"/><path d="M582,122L570,195L701,174Z" fill="#fbb983" stroke="#fbb983"/><path d="M582,122L701,174L714,145Z" fill="#f8b383" stroke="#f8b383"/><path d="M714,145L701,174L751,230Z" fill="#f6ab78" stroke="#f6ab78"/><path d="M714,145L751,230L772,132Z" fill="#f5a979" stroke="#f5a979"/><path d="M772,132L751,230L814,174Z" fill="#f3a575" stroke="#f3a575"/><path d="M772,132L814,174L868,94Z" fill="#f1a17c" stroke="#f1a17c"/><path d="M868,94L814,174L897,94Z" fill="#ee9c7b" stroke="#ee9c7b"/><path d="M897,94L814,174L929,221Z" fill="#ec9870" stroke="#ec9870"/><path d="M897,94L929,221L979,184Z" fill="#e7906a" stroke="#e7906a"/><path d="M897,94L979,184L1010,154Z" fill="#e58e6c" stroke="#e58e6c"/><path d="M1010,154L979,184L1082,215Z" fill="#df845d" stroke="#df845d"/><path d="M1010,154L1082,215L1109,123Z" fill="#dc7e5e" stroke="#dc7e5e"/><path d="M1109,123L1082,215L1133,154Z" fill="#d87b5b" stroke="#d87b5b"/><path d="M1109,123L1133,154L1236,93Z" fill="#d37c64" stroke="#d37c64"/><path d="M1133,154L1082,215L1187,210Z" fill="#d67a55" stroke="#d67a55"/><path d="M1133,154L1187,210L1236,93Z" fill="#d17b5e" stroke="#d17b5e"/><path d="M1236,93L1187,210L1275,165Z" fill="#cd7b5d" stroke="#cd7b5d"/><path d="M1236,93L1275,165L1306,153Z" fill="#ca7c61" stroke="#ca7c61"/><path d="M1236,93L1306,153L1378,109Z" fill="#c77c65" stroke="#c77c65"/><path d="M1306,153L1275,165L1331,182Z" fill="#c77b5b" stroke="#c77b5b"/><path d="M1306,153L1331,182L1378,109Z" fill="#c47b5f" stroke="#c47b5f"/><path d="M1378,109L1331,182L1433,227Z" fill="#c07b59" stroke="#c07b59"/><path d="M1378,109L1433,227L1456,99Z" fill="#bc7c60" stroke="#bc7c60"/><path d="M1456,99L1433,227L1502,228Z" fill="#b97a57" stroke="#b97a57"/><path d="M-18,212L-53,303L34,273Z" fill="#ffe8b9" stroke="#ffe8b9"/><path d="M-18,212L34,273L5,206Z" fill="#ffedba" stroke="#ffedba"/><path d="M143,180L34,273L86,306Z" fill="#ffe3ab" stroke="#ffe3ab"/><path d="M143,180L86,306L170,247Z" fill="#ffe2a6" stroke="#ffe2a6"/><path d="M143,180L170,247L179,170Z" fill="#fee7a9" stroke="#fee7a9"/><path d="M179,170L170,247L252,233Z" fill="#fee3a0" stroke="#fee3a0"/><path d="M252,233L170,247L255,260Z" fill="#fedb98" stroke="#fedb98"/><path d="M252,233L255,260L372,209Z" fill="#fed891" stroke="#fed891"/><path d="M372,209L255,260L357,313Z" fill="#fecf8a" stroke="#fecf8a"/><path d="M372,209L357,313L419,258Z" fill="#fec985" stroke="#fec985"/><path d="M372,209L419,258L452,194Z" fill="#fecd89" stroke="#fecd89"/><path d="M452,194L419,258L491,191Z" fill="#fec986" stroke="#fec986"/><path d="M491,191L419,258L531,291Z" fill="#fec07f" stroke="#fec07f"/><path d="M491,191L531,291L570,195Z" fill="#febe7d" stroke="#febe7d"/><path d="M570,195L531,291L596,291Z" fill="#fdb476" stroke="#fdb476"/><path d="M570,195L596,291L693,282Z" fill="#faae73" stroke="#faae73"/><path d="M570,195L693,282L701,174Z" fill="#f9b176" stroke="#f9b176"/><path d="M701,174L693,282L751,230Z" fill="#f6a770" stroke="#f6a770"/><path d="M751,230L693,282L738,277Z" fill="#f5a06a" stroke="#f5a06a"/><path d="M751,230L738,277L869,275Z" fill="#f39966" stroke="#f39966"/><path d="M751,230L869,275L814,174Z" fill="#f29c69" stroke="#f29c69"/><path d="M814,174L869,275L929,221Z" fill="#ed9465" stroke="#ed9465"/><path d="M929,221L869,275L903,270Z" fill="#ea8b5d" stroke="#ea8b5d"/><path d="M929,221L903,270L1015,294Z" fill="#e68358" stroke="#e68358"/><path d="M929,221L1015,294L979,184Z" fill="#e48559" stroke="#e48559"/><path d="M979,184L1015,294L1082,215Z" fill="#df7e55" stroke="#df7e55"/><path d="M1082,215L1015,294L1058,284Z" fill="#dd744e" stroke="#dd744e"/><path d="M1082,215L1058,284L1097,329Z" fill="#db6f4a" stroke="#db6f4a"/><path d="M1082,215L1097,329L1193,283Z" fill="#d76d48" stroke="#d76d48"/><path d="M1082,215L1193,283L1187,210Z" fill="#d4744e" stroke="#d4744e"/><path d="M1187,210L1193,283L1231,277Z" fill="#d0704b" stroke="#d0704b"/><path d="M1187,210L1231,277L1275,165Z" fill="#cd7751" stroke="#cd7751"/><path d="M1275,165L1231,277L1331,182Z" fill="#c97952" stroke="#c97952"/><path d="M1331,182L1231,277L1326,301Z" fill="#c7714b" stroke="#c7714b"/><path d="M1331,182L1326,301L1433,227Z" fill="#c2744e" stroke="#c2744e"/><path d="M1433,227L1326,301L1428,279Z" fill="#bf6e49" stroke="#bf6e49"/><path d="M1433,227L1428,279L1458,264Z" fill="#bb704b" stroke="#bb704b"/><path d="M1433,227L1458,264L1502,228Z" fill="#b9734d" stroke="#b9734d"/><path d="M1502,228L1458,264L1494,361Z" fill="#b76b47" stroke="#b76b47"/><path d="M1502,228L1494,361L1508,583Z" fill="#b55838" stroke="#b55838"/><path d="M-53,303L-74,487L-39,348Z" fill="#ffd5ae" stroke="#ffd5ae"/><path d="M-53,303L-39,348L34,273Z" fill="#ffe0b3" stroke="#ffe0b3"/><path d="M34,273L-39,348L33,385Z" fill="#ffd9ab" stroke="#ffd9ab"/><path d="M34,273L33,385L86,306Z" fill="#ffd9a7" stroke="#ffd9a7"/><path d="M86,306L33,385L94,358Z" fill="#ffd3a0" stroke="#ffd3a0"/><path d="M86,306L94,358L175,378Z" fill="#ffd09a" stroke="#ffd09a"/><path d="M86,306L175,378L170,247Z" fill="#fed59b" stroke="#fed59b"/><path d="M170,247L175,378L255,260Z" fill="#fed495" stroke="#fed495"/><path d="M255,260L175,378L302,337Z" fill="#fecc8a" stroke="#fecc8a"/><path d="M255,260L302,337L357,313Z" fill="#feca86" stroke="#feca86"/><path d="M357,313L302,337L385,330Z" fill="#fec180" stroke="#fec180"/><path d="M357,313L385,330L419,258Z" fill="#fec180" stroke="#fec180"/><path d="M419,258L385,330L531,291Z" fill="#febc7b" stroke="#febc7b"/><path d="M531,291L385,330L488,394Z" fill="#feb173" stroke="#feb173"/><path d="M531,291L488,394L566,393Z" fill="#fea66a" stroke="#fea66a"/><path d="M531,291L566,393L596,291Z" fill="#fda86d" stroke="#fda86d"/><path d="M596,291L566,393L673,417Z" fill="#fb9b63" stroke="#fb9b63"/><path d="M596,291L673,417L693,282Z" fill="#f99c66" stroke="#f99c66"/><path d="M693,282L673,417L713,389Z" fill="#f7915e" stroke="#f7915e"/><path d="M693,282L713,389L738,277Z" fill="#f69764" stroke="#f69764"/><path d="M738,277L713,389L780,355Z" fill="#f58f5e" stroke="#f58f5e"/><path d="M738,277L780,355L842,339Z" fill="#f38d5d" stroke="#f38d5d"/><path d="M738,277L842,339L869,275Z" fill="#f18e5f" stroke="#f18e5f"/><path d="M869,275L842,339L892,337Z" fill="#ed8457" stroke="#ed8457"/><path d="M869,275L892,337L903,270Z" fill="#eb8559" stroke="#eb8559"/><path d="M903,270L892,337L1015,294Z" fill="#e77d53" stroke="#e77d53"/><path d="M1015,294L892,337L1004,371Z" fill="#e4734c" stroke="#e4734c"/><path d="M1015,294L1004,371L1097,329Z" fill="#de6a45" stroke="#de6a45"/><path d="M1015,294L1097,329L1058,284Z" fill="#dc6d48" stroke="#dc6d48"/><path d="M1193,283L1097,329L1140,388Z" fill="#d56240" stroke="#d56240"/><path d="M1193,283L1140,388L1244,336Z" fill="#d16240" stroke="#d16240"/><path d="M1193,283L1244,336L1231,277Z" fill="#ce6945" stroke="#ce6945"/><path d="M1231,277L1244,336L1326,301Z" fill="#ca6844" stroke="#ca6844"/><path d="M1326,301L1244,336L1310,379Z" fill="#c8613f" stroke="#c8613f"/><path d="M1326,301L1310,379L1384,337Z" fill="#c4613f" stroke="#c4613f"/><path d="M1326,301L1384,337L1428,279Z" fill="#c06744" stroke="#c06744"/><path d="M1428,279L1384,337L1494,361Z" fill="#bb6441" stroke="#bb6441"/><path d="M1428,279L1494,361L1458,264Z" fill="#b96845" stroke="#b96845"/><path d="M-39,348L-74,487L-13,460Z" fill="#ffcba5" stroke="#ffcba5"/><path d="M-39,348L-13,460L33,385Z" fill="#ffcfa4" stroke="#ffcfa4"/><path d="M33,385L-13,460L15,470Z" fill="#ffc69d" stroke="#ffc69d"/><path d="M33,385L15,470L129,420Z" fill="#ffc598" stroke="#ffc598"/><path d="M33,385L129,420L94,358Z" fill="#ffcb98" stroke="#ffcb98"/><path d="M94,358L129,420L175,378Z" fill="#ffc892" stroke="#ffc892"/><path d="M175,378L129,420L184,413Z" fill="#fec38b" stroke="#fec38b"/><path d="M175,378L184,413L302,337Z" fill="#fec487" stroke="#fec487"/><path d="M302,337L184,413L302,446Z" fill="#febd7d" stroke="#febd7d"/><path d="M302,337L302,446L418,393Z" fill="#feb677" stroke="#feb677"/><path d="M302,337L418,393L385,330Z" fill="#feba7a" stroke="#feba7a"/><path d="M385,330L418,393L488,394Z" fill="#feaf72" stroke="#feaf72"/><path d="M418,393L302,446L394,452Z" fill="#feab6f" stroke="#feab6f"/><path d="M418,393L394,452L430,475Z" fill="#fea46a" stroke="#fea46a"/><path d="M418,393L430,475L488,394Z" fill="#fea46a" stroke="#fea46a"/><path d="M488,394L430,475L524,420Z" fill="#fe9e66" stroke="#fe9e66"/><path d="M488,394L524,420L566,393Z" fill="#fe9f65" stroke="#fe9f65"/><path d="M566,393L524,420L605,440Z" fill="#fd975f" stroke="#fd975f"/><path d="M566,393L605,440L673,417Z" fill="#fb915d" stroke="#fb915d"/><path d="M713,389L673,417L730,439Z" fill="#f78656" stroke="#f78656"/><path d="M713,389L730,439L780,355Z" fill="#f58656" stroke="#f58656"/><path d="M780,355L730,439L860,452Z" fill="#f37c50" stroke="#f37c50"/><path d="M780,355L860,452L842,339Z" fill="#f17d52" stroke="#f17d52"/><path d="M842,339L860,452L892,337Z" fill="#ed7950" stroke="#ed7950"/><path d="M892,337L860,452L915,451Z" fill="#eb6f48" stroke="#eb6f48"/><path d="M892,337L915,451L1004,371Z" fill="#e76e47" stroke="#e76e47"/><path d="M1004,371L915,451L1019,470Z" fill="#e3603d" stroke="#e3603d"/><path d="M1004,371L1019,470L1081,431Z" fill="#de5a39" stroke="#de5a39"/><path d="M1004,371L1081,431L1097,329Z" fill="#dc5f3d" stroke="#dc5f3d"/><path d="M1097,329L1081,431L1140,388Z" fill="#d85939" stroke="#d85939"/><path d="M1140,388L1081,431L1186,423Z" fill="#d65335" stroke="#d65335"/><path d="M1140,388L1186,423L1244,336Z" fill="#d15939" stroke="#d15939"/><path d="M1244,336L1186,423L1217,444Z" fill="#cf5637" stroke="#cf5637"/><path d="M1244,336L1217,444L1310,379Z" fill="#cb5939" stroke="#cb5939"/><path d="M1310,379L1217,444L1290,443Z" fill="#ca5234" stroke="#ca5234"/><path d="M1310,379L1290,443L1365,463Z" fill="#c55133" stroke="#c55133"/><path d="M1310,379L1365,463L1384,337Z" fill="#c25738" stroke="#c25738"/><path d="M1384,337L1365,463L1463,413Z" fill="#be5536" stroke="#be5536"/><path d="M1384,337L1463,413L1494,361Z" fill="#ba5c3b" stroke="#ba5c3b"/><path d="M1494,361L1463,413L1476,543Z" fill="#b84f32" stroke="#b84f32"/><path d="M1494,361L1476,543L1508,583Z" fill="#b6442c" stroke="#b6442c"/><path d="M-13,460L-74,487L12,513Z" fill="#ffbf9d" stroke="#ffbf9d"/><path d="M-13,460L12,513L15,470Z" fill="#ffbe99" stroke="#ffbe99"/><path d="M15,470L12,513L103,532Z" fill="#ffb791" stroke="#ffb791"/><path d="M15,470L103,532L129,420Z" fill="#ffba8f" stroke="#ffba8f"/><path d="M129,420L103,532L181,539Z" fill="#feb284" stroke="#feb284"/><path d="M129,420L181,539L184,413Z" fill="#feb884" stroke="#feb884"/><path d="M184,413L181,539L268,500Z" fill="#feb07b" stroke="#feb07b"/><path d="M184,413L268,500L302,446Z" fill="#feb378" stroke="#feb378"/><path d="M302,446L268,500L365,538Z" fill="#fea56d" stroke="#fea56d"/><path d="M302,446L365,538L394,452Z" fill="#fea46c" stroke="#fea46c"/><path d="M394,452L365,538L418,522Z" fill="#fe9a65" stroke="#fe9a65"/><path d="M394,452L418,522L430,475Z" fill="#fe9c66" stroke="#fe9c66"/><path d="M430,475L418,522L529,508Z" fill="#fe935f" stroke="#fe935f"/><path d="M430,475L529,508L524,420Z" fill="#fe9560" stroke="#fe9560"/><path d="M524,420L529,508L605,440Z" fill="#fd915c" stroke="#fd915c"/><path d="M605,440L529,508L603,517Z" fill="#fc8757" stroke="#fc8757"/><path d="M605,440L603,517L656,522Z" fill="#fa8253" stroke="#fa8253"/><path d="M605,440L656,522L673,417Z" fill="#f98555" stroke="#f98555"/><path d="M673,417L656,522L730,439Z" fill="#f78053" stroke="#f78053"/><path d="M730,439L656,522L745,533Z" fill="#f6764c" stroke="#f6764c"/><path d="M730,439L745,533L860,452Z" fill="#f3724a" stroke="#f3724a"/><path d="M860,452L745,533L873,540Z" fill="#f16543" stroke="#f16543"/><path d="M860,452L873,540L915,451Z" fill="#ec6341" stroke="#ec6341"/><path d="M915,451L873,540L895,552Z" fill="#eb5b3c" stroke="#eb5b3c"/><path d="M915,451L895,552L942,571Z" fill="#e95639" stroke="#e95639"/><path d="M915,451L942,571L1019,470Z" fill="#e55638" stroke="#e55638"/><path d="M1019,470L942,571L1020,540Z" fill="#e24b32" stroke="#e24b32"/><path d="M1019,470L1020,540L1045,488Z" fill="#df4c31" stroke="#df4c31"/><path d="M1019,470L1045,488L1081,431Z" fill="#dd5033" stroke="#dd5033"/><path d="M1081,431L1045,488L1153,500Z" fill="#d9482e" stroke="#d9482e"/><path d="M1081,431L1153,500L1186,423Z" fill="#d54c31" stroke="#d54c31"/><path d="M1186,423L1153,500L1217,444Z" fill="#d14b30" stroke="#d14b30"/><path d="M1217,444L1153,500L1247,552Z" fill="#cf432b" stroke="#cf432b"/><path d="M1217,444L1247,552L1286,501Z" fill="#cc432b" stroke="#cc432b"/><path d="M1217,444L1286,501L1290,443Z" fill="#ca4a2f" stroke="#ca4a2f"/><path d="M1290,443L1286,501L1365,463Z" fill="#c6492f" stroke="#c6492f"/><path d="M1365,463L1286,501L1402,511Z" fill="#c3442c" stroke="#c3442c"/><path d="M1365,463L1402,511L1463,413Z" fill="#bd4a2f" stroke="#bd4a2f"/><path d="M1463,413L1402,511L1476,543Z" fill="#ba452c" stroke="#ba452c"/><path d="M-74,487L-60,1092L-60,998Z" fill="#e67d76" stroke="#e67d76"/><path d="M-74,487L-60,998L-39,737Z" fill="#f28d81" stroke="#f28d81"/><path d="M-74,487L-39,737L-14,650Z" fill="#fea58f" stroke="#fea58f"/><path d="M-74,487L-14,650L-23,565Z" fill="#ffb096" stroke="#ffb096"/><path d="M-74,487L-23,565L12,513Z" fill="#ffb899" stroke="#ffb899"/><path d="M12,513L-23,565L44,604Z" fill="#ffae8f" stroke="#ffae8f"/><path d="M12,513L44,604L103,532Z" fill="#ffad8b" stroke="#ffad8b"/><path d="M103,532L44,604L104,588Z" fill="#ffa783" stroke="#ffa783"/><path d="M103,532L104,588L181,539Z" fill="#ffa87f" stroke="#ffa87f"/><path d="M181,539L104,588L132,648Z" fill="#fea079" stroke="#fea079"/><path d="M181,539L132,648L233,627Z" fill="#fe9a71" stroke="#fe9a71"/><path d="M181,539L233,627L260,608Z" fill="#fe9a6d" stroke="#fe9a6d"/><path d="M181,539L260,608L268,500Z" fill="#fea270" stroke="#fea270"/><path d="M268,500L260,608L365,538Z" fill="#fe9c69" stroke="#fe9c69"/><path d="M365,538L260,608L395,607Z" fill="#fe9161" stroke="#fe9161"/><path d="M365,538L395,607L418,522Z" fill="#fe905f" stroke="#fe905f"/><path d="M418,522L395,607L435,602Z" fill="#fe895b" stroke="#fe895b"/><path d="M418,522L435,602L529,508Z" fill="#fe8b5a" stroke="#fe8b5a"/><path d="M529,508L435,602L528,607Z" fill="#fe8154" stroke="#fe8154"/><path d="M529,508L528,607L603,517Z" fill="#fd8052" stroke="#fd8052"/><path d="M603,517L528,607L633,592Z" fill="#fc764d" stroke="#fc764d"/><path d="M603,517L633,592L656,522Z" fill="#fa764d" stroke="#fa764d"/><path d="M656,522L633,592L646,606Z" fill="#f96f48" stroke="#f96f48"/><path d="M656,522L646,606L745,533Z" fill="#f86e48" stroke="#f86e48"/><path d="M745,533L646,606L758,600Z" fill="#f66543" stroke="#f66543"/><path d="M745,533L758,600L873,540Z" fill="#f36040" stroke="#f36040"/><path d="M873,540L758,600L837,630Z" fill="#f1563b" stroke="#f1563b"/><path d="M873,540L837,630L895,552Z" fill="#ed5338" stroke="#ed5338"/><path d="M895,552L837,630L905,666Z" fill="#ec4932" stroke="#ec4932"/><path d="M895,552L905,666L942,571Z" fill="#e94831" stroke="#e94831"/><path d="M1020,540L942,571L999,634Z" fill="#e3412c" stroke="#e3412c"/><path d="M1020,540L999,634L1054,611Z" fill="#df3a27" stroke="#df3a27"/><path d="M1020,540L1054,611L1153,500Z" fill="#db3b27" stroke="#db3b27"/><path d="M1020,540L1153,500L1045,488Z" fill="#db442c" stroke="#db442c"/><path d="M1153,500L1054,611L1176,615Z" fill="#d63423" stroke="#d63423"/><path d="M1153,500L1176,615L1247,552Z" fill="#d13825" stroke="#d13825"/><path d="M1247,552L1176,615L1239,634Z" fill="#ce2f20" stroke="#ce2f20"/><path d="M1247,552L1239,634L1340,631Z" fill="#c92e1f" stroke="#c92e1f"/><path d="M1247,552L1340,631L1286,501Z" fill="#c83724" stroke="#c83724"/><path d="M1286,501L1340,631L1402,511Z" fill="#c33926" stroke="#c33926"/><path d="M1402,511L1340,631L1428,577Z" fill="#bf3423" stroke="#bf3423"/><path d="M1402,511L1428,577L1476,543Z" fill="#bb3a26" stroke="#bb3a26"/><path d="M1476,543L1428,577L1508,583Z" fill="#b83524" stroke="#b83524"/><path d="M-23,565L-14,650L44,604Z" fill="#ffa68b" stroke="#ffa68b"/><path d="M44,604L-14,650L9,682Z" fill="#fc9d84" stroke="#fc9d84"/><path d="M44,604L9,682L132,648Z" fill="#fc9a7d" stroke="#fc9a7d"/><path d="M44,604L132,648L104,588Z" fill="#ff9f7d" stroke="#ff9f7d"/><path d="M233,627L132,648L178,702Z" fill="#fa8f6a" stroke="#fa8f6a"/><path d="M233,627L178,702L263,664Z" fill="#f98b63" stroke="#f98b63"/><path d="M233,627L263,664L260,608Z" fill="#fc9064" stroke="#fc9064"/><path d="M260,608L263,664L395,607Z" fill="#fd8c5f" stroke="#fd8c5f"/><path d="M395,607L263,664L386,712Z" fill="#fa8056" stroke="#fa8056"/><path d="M395,607L386,712L472,679Z" fill="#f9774f" stroke="#f9774f"/><path d="M395,607L472,679L435,602Z" fill="#fc7d53" stroke="#fc7d53"/><path d="M435,602L472,679L528,607Z" fill="#fc784f" stroke="#fc784f"/><path d="M528,607L472,679L487,691Z" fill="#f96f49" stroke="#f96f49"/><path d="M528,607L487,691L603,690Z" fill="#f96a44" stroke="#f96a44"/><path d="M528,607L603,690L633,592Z" fill="#fa6b46" stroke="#fa6b46"/><path d="M633,592L603,690L646,606Z" fill="#f96643" stroke="#f96643"/><path d="M646,606L603,690L690,659Z" fill="#f55f3e" stroke="#f55f3e"/><path d="M646,606L690,659L758,600Z" fill="#f65f3f" stroke="#f65f3f"/><path d="M758,600L690,659L736,670Z" fill="#f2573a" stroke="#f2573a"/><path d="M758,600L736,670L818,687Z" fill="#f04f36" stroke="#f04f36"/><path d="M758,600L818,687L837,630Z" fill="#ef4e35" stroke="#ef4e35"/><path d="M837,630L818,687L905,666Z" fill="#ea432e" stroke="#ea432e"/><path d="M942,571L905,666L999,634Z" fill="#e53e2a" stroke="#e53e2a"/><path d="M999,634L905,666L989,681Z" fill="#e03424" stroke="#e03424"/><path d="M999,634L989,681L1093,701Z" fill="#d9291c" stroke="#d9291c"/><path d="M999,634L1093,701L1054,611Z" fill="#da2b1d" stroke="#da2b1d"/><path d="M1054,611L1093,701L1176,615Z" fill="#d5261a" stroke="#d5261a"/><path d="M1176,615L1093,701L1158,689Z" fill="#cf2116" stroke="#cf2116"/><path d="M1176,615L1158,689L1216,689Z" fill="#cc2217" stroke="#cc2217"/><path d="M1176,615L1216,689L1239,634Z" fill="#cc261a" stroke="#cc261a"/><path d="M1239,634L1216,689L1305,681Z" fill="#c62116" stroke="#c62116"/><path d="M1239,634L1305,681L1340,631Z" fill="#c42519" stroke="#c42519"/><path d="M1340,631L1305,681L1373,714Z" fill="#be1f15" stroke="#be1f15"/><path d="M1340,631L1373,714L1428,577Z" fill="#be271a" stroke="#be271a"/><path d="M1428,577L1373,714L1504,696Z" fill="#b62217" stroke="#b62217"/><path d="M1428,577L1504,696L1508,583Z" fill="#b72b1e" stroke="#b72b1e"/><path d="M1508,583L1504,696L1509,836Z" fill="#ac1911" stroke="#ac1911"/><path d="M-14,650L-39,737L9,682Z" fill="#f79582" stroke="#f79582"/><path d="M9,682L-39,737L40,739Z" fill="#f48e7b" stroke="#f48e7b"/><path d="M9,682L40,739L132,648Z" fill="#f79077" stroke="#f79077"/><path d="M132,648L40,739L120,763Z" fill="#f4886e" stroke="#f4886e"/><path d="M132,648L120,763L178,702Z" fill="#f58869" stroke="#f58869"/><path d="M178,702L120,763L219,771Z" fill="#f17d5f" stroke="#f17d5f"/><path d="M178,702L219,771L263,664Z" fill="#f4815d" stroke="#f4815d"/><path d="M263,664L219,771L297,725Z" fill="#f37d56" stroke="#f37d56"/><path d="M263,664L297,725L341,731Z" fill="#f57c53" stroke="#f57c53"/><path d="M263,664L341,731L386,712Z" fill="#f57951" stroke="#f57951"/><path d="M386,712L341,731L431,780Z" fill="#f16a47" stroke="#f16a47"/><path d="M386,712L431,780L491,748Z" fill="#f06341" stroke="#f06341"/><path d="M386,712L491,748L472,679Z" fill="#f46945" stroke="#f46945"/><path d="M472,679L491,748L487,691Z" fill="#f46743" stroke="#f46743"/><path d="M487,691L491,748L603,690Z" fill="#f4613f" stroke="#f4613f"/><path d="M603,690L491,748L627,735Z" fill="#f25839" stroke="#f25839"/><path d="M603,690L627,735L690,659Z" fill="#f15639" stroke="#f15639"/><path d="M690,659L627,735L671,767Z" fill="#ed4e33" stroke="#ed4e33"/><path d="M690,659L671,767L736,670Z" fill="#ee4e34" stroke="#ee4e34"/><path d="M736,670L671,767L787,737Z" fill="#ea452e" stroke="#ea452e"/><path d="M736,670L787,737L818,687Z" fill="#eb442f" stroke="#eb442f"/><path d="M818,687L787,737L819,730Z" fill="#e73d2a" stroke="#e73d2a"/><path d="M818,687L819,730L905,666Z" fill="#e73d2a" stroke="#e73d2a"/><path d="M905,666L819,730L903,765Z" fill="#e13323" stroke="#e13323"/><path d="M905,666L903,765L989,681Z" fill="#de2f20" stroke="#de2f20"/><path d="M989,681L903,765L1005,737Z" fill="#d9261a" stroke="#d9261a"/><path d="M989,681L1005,737L1048,732Z" fill="#d62117" stroke="#d62117"/><path d="M989,681L1048,732L1093,701Z" fill="#d52016" stroke="#d52016"/><path d="M1093,701L1048,732L1162,784Z" fill="#cc120c" stroke="#cc120c"/><path d="M1093,701L1162,784L1158,689Z" fill="#ca150e" stroke="#ca150e"/><path d="M1158,689L1162,784L1216,689Z" fill="#c7160f" stroke="#c7160f"/><path d="M1216,689L1162,784L1252,738Z" fill="#c3120c" stroke="#c3120c"/><path d="M1216,689L1252,738L1305,681Z" fill="#c21911" stroke="#c21911"/><path d="M1305,681L1252,738L1324,739Z" fill="#bd160f" stroke="#bd160f"/><path d="M1305,681L1324,739L1373,714Z" fill="#ba1810" stroke="#ba1810"/><path d="M1373,714L1324,739L1394,734Z" fill="#b6140e" stroke="#b6140e"/><path d="M1373,714L1394,734L1504,696Z" fill="#b21710" stroke="#b21710"/><path d="M1504,696L1394,734L1476,777Z" fill="#ad120d" stroke="#ad120d"/><path d="M1504,696L1476,777L1509,836Z" fill="#a60b08" stroke="#a60b08"/><path d="M-39,737L-60,998L-19,821Z" fill="#e67b72" stroke="#e67b72"/><path d="M-39,737L-19,821L40,739Z" fill="#ef8476" stroke="#ef8476"/><path d="M40,739L-19,821L39,831Z" fill="#ec7c6d" stroke="#ec7c6d"/><path d="M40,739L39,831L120,763Z" fill="#ee7d69" stroke="#ee7d69"/><path d="M120,763L39,831L110,846Z" fill="#ea7461" stroke="#ea7461"/><path d="M120,763L110,846L167,807Z" fill="#eb735c" stroke="#eb735c"/><path d="M120,763L167,807L219,771Z" fill="#ed765a" stroke="#ed765a"/><path d="M219,771L167,807L259,823Z" fill="#eb6e51" stroke="#eb6e51"/><path d="M219,771L259,823L297,725Z" fill="#ee714e" stroke="#ee714e"/><path d="M297,725L259,823L352,832Z" fill="#ec6847" stroke="#ec6847"/><path d="M297,725L352,832L341,731Z" fill="#ef6c49" stroke="#ef6c49"/><path d="M341,731L352,832L431,780Z" fill="#ed6342" stroke="#ed6342"/><path d="M431,780L352,832L413,860Z" fill="#e9583a" stroke="#e9583a"/><path d="M431,780L413,860L512,831Z" fill="#e85235" stroke="#e85235"/><path d="M431,780L512,831L491,748Z" fill="#ec5638" stroke="#ec5638"/><path d="M491,748L512,831L627,735Z" fill="#ee5234" stroke="#ee5234"/><path d="M627,735L512,831L625,828Z" fill="#e9462d" stroke="#e9462d"/><path d="M627,735L625,828L671,767Z" fill="#e9452d" stroke="#e9452d"/><path d="M671,767L625,828L671,817Z" fill="#e53d28" stroke="#e53d28"/><path d="M671,767L671,817L776,807Z" fill="#e43825" stroke="#e43825"/><path d="M671,767L776,807L787,737Z" fill="#e53926" stroke="#e53926"/><path d="M787,737L776,807L819,730Z" fill="#e43625" stroke="#e43625"/><path d="M819,730L776,807L871,832Z" fill="#df2c1e" stroke="#df2c1e"/><path d="M819,730L871,832L903,765Z" fill="#dd291c" stroke="#dd291c"/><path d="M903,765L871,832L912,842Z" fill="#d61d14" stroke="#d61d14"/><path d="M903,765L912,842L977,855Z" fill="#d3160f" stroke="#d3160f"/><path d="M903,765L977,855L1005,737Z" fill="#d31a12" stroke="#d31a12"/><path d="M1005,737L977,855L1089,844Z" fill="#cb0b08" stroke="#cb0b08"/><path d="M1005,737L1089,844L1048,732Z" fill="#cd110c" stroke="#cd110c"/><path d="M1048,732L1089,844L1133,821Z" fill="#c70504" stroke="#c70504"/><path d="M1048,732L1133,821L1162,784Z" fill="#c60906" stroke="#c60906"/><path d="M1162,784L1133,821L1211,807Z" fill="#bf0403" stroke="#bf0403"/><path d="M1162,784L1211,807L1252,738Z" fill="#bf0a07" stroke="#bf0a07"/><path d="M1252,738L1211,807L1319,868Z" fill="#b70403" stroke="#b70403"/><path d="M1252,738L1319,868L1324,739Z" fill="#b60806" stroke="#b60806"/><path d="M1324,739L1319,868L1380,821Z" fill="#b00302" stroke="#b00302"/><path d="M1324,739L1380,821L1394,734Z" fill="#b20c08" stroke="#b20c08"/><path d="M1394,734L1380,821L1476,777Z" fill="#ac0906" stroke="#ac0906"/><path d="M1476,777L1380,821L1509,836Z" fill="#a60202" stroke="#a60202"/><path d="M-19,821L-60,998L-20,900Z" fill="#e17a72" stroke="#e17a72"/><path d="M-19,821L-20,900L39,831Z" fill="#e7786d" stroke="#e7786d"/><path d="M39,831L-20,900L42,912Z" fill="#e4776a" stroke="#e4776a"/><path d="M39,831L42,912L106,899Z" fill="#e47464" stroke="#e47464"/><path d="M39,831L106,899L110,846Z" fill="#e67360" stroke="#e67360"/><path d="M110,846L106,899L209,935Z" fill="#e26f58" stroke="#e26f58"/><path d="M110,846L209,935L167,807Z" fill="#e56e55" stroke="#e56e55"/><path d="M167,807L209,935L259,823Z" fill="#e66a4e" stroke="#e66a4e"/><path d="M259,823L209,935L306,903Z" fill="#e26747" stroke="#e26747"/><path d="M259,823L306,903L352,832Z" fill="#e66342" stroke="#e66342"/><path d="M352,832L306,903L371,944Z" fill="#e25e3f" stroke="#e25e3f"/><path d="M352,832L371,944L413,860Z" fill="#e35a3c" stroke="#e35a3c"/><path d="M413,860L371,944L456,906Z" fill="#e05639" stroke="#e05639"/><path d="M413,860L456,906L512,831Z" fill="#e45134" stroke="#e45134"/><path d="M512,831L456,906L488,930Z" fill="#e24e32" stroke="#e24e32"/><path d="M512,831L488,930L603,920Z" fill="#e1482e" stroke="#e1482e"/><path d="M512,831L603,920L625,828Z" fill="#e3432a" stroke="#e3432a"/><path d="M625,828L603,920L651,915Z" fill="#de3d27" stroke="#de3d27"/><path d="M625,828L651,915L671,817Z" fill="#e13a26" stroke="#e13a26"/><path d="M671,817L651,915L725,889Z" fill="#dd3623" stroke="#dd3623"/><path d="M671,817L725,889L776,807Z" fill="#df3120" stroke="#df3120"/><path d="M776,807L725,889L834,950Z" fill="#d82a1d" stroke="#d82a1d"/><path d="M776,807L834,950L871,832Z" fill="#d72419" stroke="#d72419"/><path d="M871,832L834,950L910,946Z" fill="#cf1e15" stroke="#cf1e15"/><path d="M871,832L910,946L912,842Z" fill="#d01b13" stroke="#d01b13"/><path d="M912,842L910,946L977,855Z" fill="#cc160f" stroke="#cc160f"/><path d="M977,855L910,946L1034,923Z" fill="#c6100b" stroke="#c6100b"/><path d="M977,855L1034,923L1089,844Z" fill="#c40806" stroke="#c40806"/><path d="M1089,844L1034,923L1103,926Z" fill="#be0302" stroke="#be0302"/><path d="M1089,844L1103,926L1176,888Z" fill="#bb0000" stroke="#bb0000"/><path d="M1089,844L1176,888L1133,821Z" fill="#be0000" stroke="#be0000"/><path d="M1133,821L1176,888L1211,807Z" fill="#bb0000" stroke="#bb0000"/><path d="M1211,807L1176,888L1251,930Z" fill="#b40000" stroke="#b40000"/><path d="M1211,807L1251,930L1319,868Z" fill="#b10000" stroke="#b10000"/><path d="M1319,868L1251,930L1298,925Z" fill="#aa0000" stroke="#aa0000"/><path d="M1319,868L1298,925L1373,954Z" fill="#a50000" stroke="#a50000"/><path d="M1319,868L1373,954L1380,821Z" fill="#a70000" stroke="#a70000"/><path d="M1380,821L1373,954L1491,886Z" fill="#a10000" stroke="#a10000"/><path d="M1380,821L1491,886L1509,836Z" fill="#a10000" stroke="#a10000"/><path d="M1509,836L1491,886L1481,973Z" fill="#990000" stroke="#990000"/><path d="M-20,900L-60,998L42,912Z" fill="#de796f" stroke="#de796f"/><path d="M42,912L-60,998L65,1008Z" fill="#da776a" stroke="#da776a"/><path d="M42,912L65,1008L97,1006Z" fill="#da7463" stroke="#da7463"/><path d="M42,912L97,1006L106,899Z" fill="#de7361" stroke="#de7361"/><path d="M106,899L97,1006L195,982Z" fill="#db705a" stroke="#db705a"/><path d="M106,899L195,982L209,935Z" fill="#dd6d54" stroke="#dd6d54"/><path d="M209,935L195,982L293,1017Z" fill="#d9694b" stroke="#d9694b"/><path d="M209,935L293,1017L306,903Z" fill="#dc6746" stroke="#dc6746"/><path d="M306,903L293,1017L371,944Z" fill="#db6041" stroke="#db6041"/><path d="M371,944L293,1017L385,973Z" fill="#d95d3e" stroke="#d95d3e"/><path d="M371,944L385,973L456,906Z" fill="#dd573a" stroke="#dd573a"/><path d="M456,906L385,973L488,930Z" fill="#dd5336" stroke="#dd5336"/><path d="M488,930L385,973L506,981Z" fill="#da5135" stroke="#da5135"/><path d="M488,930L506,981L575,982Z" fill="#da492f" stroke="#da492f"/><path d="M488,930L575,982L603,920Z" fill="#dc462c" stroke="#dc462c"/><path d="M603,920L575,982L651,915Z" fill="#da3f28" stroke="#da3f28"/><path d="M651,915L575,982L675,1029Z" fill="#d53c27" stroke="#d53c27"/><path d="M651,915L675,1029L726,1016Z" fill="#d13623" stroke="#d13623"/><path d="M651,915L726,1016L725,889Z" fill="#d53422" stroke="#d53422"/><path d="M725,889L726,1016L834,950Z" fill="#d12c1e" stroke="#d12c1e"/><path d="M834,950L726,1016L836,999Z" fill="#cc281b" stroke="#cc281b"/><path d="M834,950L836,999L896,966Z" fill="#ca2016" stroke="#ca2016"/><path d="M834,950L896,966L910,946Z" fill="#ca1d14" stroke="#ca1d14"/><path d="M910,946L896,966L971,997Z" fill="#c31710" stroke="#c31710"/><path d="M910,946L971,997L1034,923Z" fill="#c1110c" stroke="#c1110c"/><path d="M1034,923L971,997L1093,983Z" fill="#bb0806" stroke="#bb0806"/><path d="M1034,923L1093,983L1103,926Z" fill="#b90302" stroke="#b90302"/><path d="M1103,926L1093,983L1132,1016Z" fill="#b30000" stroke="#b30000"/><path d="M1103,926L1132,1016L1176,888Z" fill="#b40000" stroke="#b40000"/><path d="M1176,888L1132,1016L1251,930Z" fill="#af0000" stroke="#af0000"/><path d="M1251,930L1132,1016L1261,969Z" fill="#aa0000" stroke="#aa0000"/><path d="M1251,930L1261,969L1298,925Z" fill="#a80000" stroke="#a80000"/><path d="M1298,925L1261,969L1318,1024Z" fill="#a30000" stroke="#a30000"/><path d="M1298,925L1318,1024L1373,954Z" fill="#a10000" stroke="#a10000"/><path d="M1373,954L1318,1024L1410,977Z" fill="#9b0000" stroke="#9b0000"/><path d="M1373,954L1410,977L1491,886Z" fill="#9b0000" stroke="#9b0000"/><path d="M1491,886L1410,977L1481,973Z" fill="#970000" stroke="#970000"/><path d="M-60,998L-60,1092L29,1046Z" fill="#d37a71" stroke="#d37a71"/><path d="M-60,998L29,1046L65,1008Z" fill="#d6786b" stroke="#d6786b"/><path d="M65,1008L29,1046L97,1006Z" fill="#d57464" stroke="#d57464"/><path d="M97,1006L29,1046L149,1086Z" fill="#d37260" stroke="#d37260"/><path d="M97,1006L149,1086L195,982Z" fill="#d46f58" stroke="#d46f58"/><path d="M195,982L149,1086L229,1051Z" fill="#d36c51" stroke="#d36c51"/><path d="M195,982L229,1051L293,1017Z" fill="#d5694a" stroke="#d5694a"/><path d="M293,1017L229,1051L268,1102Z" fill="#d16747" stroke="#d16747"/><path d="M293,1017L268,1102L394,1113Z" fill="#cf6141" stroke="#cf6141"/><path d="M293,1017L394,1113L410,1033Z" fill="#d15c3d" stroke="#d15c3d"/><path d="M293,1017L410,1033L385,973Z" fill="#d65c3d" stroke="#d65c3d"/><path d="M385,973L410,1033L506,981Z" fill="#d75437" stroke="#d75437"/><path d="M410,1033L394,1113L447,1069Z" fill="#cf5638" stroke="#cf5638"/><path d="M410,1033L447,1069L506,981Z" fill="#d35135" stroke="#d35135"/><path d="M506,981L447,1069L529,1062Z" fill="#d24d31" stroke="#d24d31"/><path d="M506,981L529,1062L575,982Z" fill="#d5482e" stroke="#d5482e"/><path d="M575,982L529,1062L633,1063Z" fill="#d1432b" stroke="#d1432b"/><path d="M575,982L633,1063L675,1029Z" fill="#d03d27" stroke="#d03d27"/><path d="M675,1029L633,1063L665,1091Z" fill="#cb3925" stroke="#cb3925"/><path d="M675,1029L665,1091L740,1087Z" fill="#c93523" stroke="#c93523"/><path d="M675,1029L740,1087L726,1016Z" fill="#ca3221" stroke="#ca3221"/><path d="M726,1016L740,1087L836,999Z" fill="#c92c1d" stroke="#c92c1d"/><path d="M836,999L740,1087L856,1068Z" fill="#c5261a" stroke="#c5261a"/><path d="M836,999L856,1068L896,966Z" fill="#c52016" stroke="#c52016"/><path d="M896,966L856,1068L894,1093Z" fill="#c01d14" stroke="#c01d14"/><path d="M896,966L894,1093L971,997Z" fill="#bf1810" stroke="#bf1810"/><path d="M971,997L894,1093L995,1097Z" fill="#b8130d" stroke="#b8130d"/><path d="M971,997L995,1097L1075,1068Z" fill="#b30b08" stroke="#b30b08"/><path d="M971,997L1075,1068L1093,983Z" fill="#b40705" stroke="#b40705"/><path d="M1093,983L1075,1068L1132,1016Z" fill="#af0000" stroke="#af0000"/><path d="M1132,1016L1075,1068L1191,1091Z" fill="#a80000" stroke="#a80000"/><path d="M1132,1016L1191,1091L1261,969Z" fill="#a60000" stroke="#a60000"/><path d="M1261,969L1191,1091L1249,1112Z" fill="#9f0000" stroke="#9f0000"/><path d="M1261,969L1249,1112L1318,1024Z" fill="#9e0000" stroke="#9e0000"/><path d="M1318,1024L1249,1112L1325,1104Z" fill="#980000" stroke="#980000"/><path d="M1318,1024L1325,1104L1387,1084Z" fill="#950000" stroke="#950000"/><path d="M1318,1024L1387,1084L1410,977Z" fill="#960000" stroke="#960000"/><path d="M1410,977L1387,1084L1459,1067Z" fill="#910000" stroke="#910000"/><path d="M1410,977L1459,1067L1481,973Z" fill="#920000" stroke="#920000"/><path d="M-60,1092L394,1113L268,1102Z" fill="#cc6b50" stroke="#cc6b50"/><path d="M-60,1092L268,1102L149,1086Z" fill="#ce705c" stroke="#ce705c"/><path d="M-60,1092L149,1086L29,1046Z" fill="#d07667" stroke="#d07667"/><path d="M149,1086L268,1102L229,1051Z" fill="#cf6a4e" stroke="#cf6a4e"/><path d="M394,1113L1249,1112L995,1097Z" fill="#ba1d14" stroke="#ba1d14"/><path d="M394,1113L995,1097L894,1093Z" fill="#c22d1e" stroke="#c22d1e"/><path d="M394,1113L894,1093L665,1091Z" fill="#c73a26" stroke="#c73a26"/><path d="M394,1113L665,1091L529,1062Z" fill="#cd492e" stroke="#cd492e"/><path d="M394,1113L529,1062L447,1069Z" fill="#ce5135" stroke="#ce5135"/><path d="M529,1062L665,1091L633,1063Z" fill="#cc3f28" stroke="#cc3f28"/><path d="M665,1091L894,1093L740,1087Z" fill="#c32c1d" stroke="#c32c1d"/><path d="M740,1087L894,1093L856,1068Z" fill="#c02419" stroke="#c02419"/><path d="M995,1097L1249,1112L1191,1091Z" fill="#a30000" stroke="#a30000"/><path d="M995,1097L1191,1091L1075,1068Z" fill="#aa0101" stroke="#aa0101"/><path d="M1325,1104L1459,1067L1387,1084Z" fill="#8f0000" stroke="#8f0000"/></g><filter id="noise"><feTurbulence type="fractalNoise" in="fillPaint" fill="#F00" baseFrequency="0.7" numOctaves="3" stitchTiles="stitch"/><feComponentTransfer><feFuncR type="linear" slope="2" intercept="-.5"/><feFuncG type="linear" slope="2" intercept="-.5"/><feFuncB type="linear" slope="2" intercept="-.5"/></feComponentTransfer><feColorMatrix type="matrix" values="0.3333 0.3333 0.3333 0 0 
 0.3333 0.3333 0.3333 0 0 
 0.3333 0.3333 0.3333 0 0 
 0 0 0 1 0"/></filter><rect opacity="0.2" width="100%" height="100%" filter="url(#noise)"/></svg>